<mxfile host="app.diagrams.net" modified="2022-01-19T01:06:29.082Z" agent="5.0 (Windows NT 10.0; Win64; x64) AppleWebKit/537.36 (KHTML, like Gecko) Chrome/97.0.4692.71 Safari/537.36" etag="0oaxK9bHAfTI_Hva67cJ" version="16.3.0" type="github">
  <diagram id="C5RBs43oDa-KdzZeNtuy" name="Page-1">
    <mxGraphModel dx="5891" dy="3206" grid="1" gridSize="10" guides="1" tooltips="1" connect="1" arrows="1" fold="1" page="1" pageScale="1" pageWidth="3300" pageHeight="2339" math="0" shadow="0">
      <root>
        <mxCell id="WIyWlLk6GJQsqaUBKTNV-0" />
        <mxCell id="WIyWlLk6GJQsqaUBKTNV-1" parent="WIyWlLk6GJQsqaUBKTNV-0" />
        <mxCell id="Nr0vDeNPcTDGTxnFOgeZ-0" value="" style="edgeStyle=orthogonalEdgeStyle;rounded=0;orthogonalLoop=1;jettySize=auto;html=1;" edge="1" parent="WIyWlLk6GJQsqaUBKTNV-1" source="WIyWlLk6GJQsqaUBKTNV-3" target="WIyWlLk6GJQsqaUBKTNV-12">
          <mxGeometry relative="1" as="geometry" />
        </mxCell>
        <mxCell id="WIyWlLk6GJQsqaUBKTNV-3" value="Open Dashboard" style="rounded=1;whiteSpace=wrap;html=1;fontSize=12;glass=0;strokeWidth=1;shadow=0;" parent="WIyWlLk6GJQsqaUBKTNV-1" vertex="1">
          <mxGeometry x="1380" y="980" width="120" height="40" as="geometry" />
        </mxCell>
        <mxCell id="Nr0vDeNPcTDGTxnFOgeZ-57" value="" style="edgeStyle=orthogonalEdgeStyle;rounded=0;orthogonalLoop=1;jettySize=auto;html=1;fontColor=#006600;" edge="1" parent="WIyWlLk6GJQsqaUBKTNV-1" source="WIyWlLk6GJQsqaUBKTNV-12" target="Nr0vDeNPcTDGTxnFOgeZ-56">
          <mxGeometry relative="1" as="geometry" />
        </mxCell>
        <mxCell id="Nr0vDeNPcTDGTxnFOgeZ-59" value="" style="edgeStyle=orthogonalEdgeStyle;rounded=0;orthogonalLoop=1;jettySize=auto;html=1;fontColor=#006600;entryX=0;entryY=0.5;entryDx=0;entryDy=0;" edge="1" parent="WIyWlLk6GJQsqaUBKTNV-1" source="WIyWlLk6GJQsqaUBKTNV-12" target="Nr0vDeNPcTDGTxnFOgeZ-58">
          <mxGeometry relative="1" as="geometry" />
        </mxCell>
        <mxCell id="Nr0vDeNPcTDGTxnFOgeZ-82" style="edgeStyle=orthogonalEdgeStyle;rounded=0;orthogonalLoop=1;jettySize=auto;html=1;fontColor=#009900;entryX=0;entryY=0.5;entryDx=0;entryDy=0;" edge="1" parent="WIyWlLk6GJQsqaUBKTNV-1" source="WIyWlLk6GJQsqaUBKTNV-12" target="Nr0vDeNPcTDGTxnFOgeZ-84">
          <mxGeometry relative="1" as="geometry">
            <mxPoint x="1590" y="1270" as="targetPoint" />
          </mxGeometry>
        </mxCell>
        <mxCell id="WIyWlLk6GJQsqaUBKTNV-12" value="Case details API call" style="rounded=1;whiteSpace=wrap;html=1;fontSize=12;glass=0;strokeWidth=1;shadow=0;" parent="WIyWlLk6GJQsqaUBKTNV-1" vertex="1">
          <mxGeometry x="1380" y="1060" width="120" height="40" as="geometry" />
        </mxCell>
        <mxCell id="Nr0vDeNPcTDGTxnFOgeZ-8" value="Dashboard scenario 1" style="swimlane;" vertex="1" parent="WIyWlLk6GJQsqaUBKTNV-1">
          <mxGeometry x="755" y="220" width="415" height="210" as="geometry" />
        </mxCell>
        <mxCell id="Nr0vDeNPcTDGTxnFOgeZ-9" value="&lt;font color=&quot;#000000&quot;&gt;Case details:&lt;/font&gt;&amp;nbsp;API error" style="text;html=1;align=center;verticalAlign=middle;resizable=0;points=[];autosize=1;strokeColor=none;fillColor=none;fontColor=#FF3333;" vertex="1" parent="Nr0vDeNPcTDGTxnFOgeZ-8">
          <mxGeometry x="-5" y="30" width="140" height="20" as="geometry" />
        </mxCell>
        <mxCell id="Nr0vDeNPcTDGTxnFOgeZ-12" value="&lt;font color=&quot;#000000&quot;&gt;Applications:&lt;/font&gt;&amp;nbsp;&lt;font color=&quot;#ff0000&quot;&gt;API error&lt;/font&gt;" style="text;html=1;align=center;verticalAlign=middle;resizable=0;points=[];autosize=1;strokeColor=none;fillColor=none;fontColor=#CC6600;" vertex="1" parent="Nr0vDeNPcTDGTxnFOgeZ-8">
          <mxGeometry x="5" y="60" width="130" height="20" as="geometry" />
        </mxCell>
        <mxCell id="Nr0vDeNPcTDGTxnFOgeZ-13" value="&lt;font color=&quot;#000000&quot;&gt;Appointments:&lt;/font&gt; &lt;font color=&quot;#990000&quot;&gt;Unkown: We don&#39;t request appointments&lt;/font&gt;" style="text;html=1;align=center;verticalAlign=middle;resizable=0;points=[];autosize=1;strokeColor=none;fillColor=none;fontColor=#CC6600;" vertex="1" parent="Nr0vDeNPcTDGTxnFOgeZ-8">
          <mxGeometry y="90" width="310" height="20" as="geometry" />
        </mxCell>
        <mxCell id="Nr0vDeNPcTDGTxnFOgeZ-15" value="&lt;font color=&quot;#000000&quot;&gt;Things To Do:&lt;/font&gt; &lt;font color=&quot;#009900&quot;&gt;We &quot;Link a case case&quot;, &quot;Start a new app&quot;, docs to do and etc.&lt;/font&gt;" style="text;html=1;align=center;verticalAlign=middle;resizable=0;points=[];autosize=1;strokeColor=none;fillColor=none;fontColor=#99004D;" vertex="1" parent="Nr0vDeNPcTDGTxnFOgeZ-8">
          <mxGeometry x="-5" y="120" width="420" height="20" as="geometry" />
        </mxCell>
        <mxCell id="Nr0vDeNPcTDGTxnFOgeZ-17" value="&lt;font color=&quot;#000000&quot;&gt;What Else To Do:&lt;/font&gt; &lt;font color=&quot;#006600&quot;&gt;We only show 1 item: &quot;I want to see if I&#39;m eligible&quot;&lt;/font&gt;&amp;nbsp;" style="text;html=1;align=center;verticalAlign=middle;resizable=0;points=[];autosize=1;strokeColor=none;fillColor=none;fontColor=#99004D;" vertex="1" parent="Nr0vDeNPcTDGTxnFOgeZ-8">
          <mxGeometry y="150" width="380" height="20" as="geometry" />
        </mxCell>
        <mxCell id="Nr0vDeNPcTDGTxnFOgeZ-19" value="&lt;font color=&quot;#000000&quot;&gt;Help Section:&lt;/font&gt; &lt;font color=&quot;#006600&quot;&gt;Always show 1 item: &quot;Take me to Help Center&quot;&lt;/font&gt;" style="text;html=1;align=center;verticalAlign=middle;resizable=0;points=[];autosize=1;strokeColor=none;fillColor=none;fontColor=#000099;" vertex="1" parent="Nr0vDeNPcTDGTxnFOgeZ-8">
          <mxGeometry y="180" width="340" height="20" as="geometry" />
        </mxCell>
        <mxCell id="Nr0vDeNPcTDGTxnFOgeZ-21" value="Failed" style="text;html=1;align=center;verticalAlign=middle;resizable=0;points=[];autosize=1;strokeColor=none;fillColor=none;fontColor=#FF3333;" vertex="1" parent="WIyWlLk6GJQsqaUBKTNV-1">
          <mxGeometry x="1310" y="1050" width="50" height="20" as="geometry" />
        </mxCell>
        <mxCell id="Nr0vDeNPcTDGTxnFOgeZ-25" value="&lt;font color=&quot;#009900&quot;&gt;with linked cases&lt;/font&gt;" style="text;html=1;align=center;verticalAlign=middle;resizable=0;points=[];autosize=1;strokeColor=none;fillColor=none;fontColor=#FF3333;" vertex="1" parent="WIyWlLk6GJQsqaUBKTNV-1">
          <mxGeometry x="1470" y="940" width="110" height="20" as="geometry" />
        </mxCell>
        <mxCell id="Nr0vDeNPcTDGTxnFOgeZ-61" value="" style="edgeStyle=orthogonalEdgeStyle;rounded=0;orthogonalLoop=1;jettySize=auto;html=1;fontColor=#006600;" edge="1" parent="WIyWlLk6GJQsqaUBKTNV-1" source="Nr0vDeNPcTDGTxnFOgeZ-56">
          <mxGeometry relative="1" as="geometry">
            <mxPoint x="1169.9999999999995" y="1220" as="targetPoint" />
          </mxGeometry>
        </mxCell>
        <mxCell id="Nr0vDeNPcTDGTxnFOgeZ-63" value="" style="edgeStyle=orthogonalEdgeStyle;rounded=0;orthogonalLoop=1;jettySize=auto;html=1;fontColor=#006600;" edge="1" parent="WIyWlLk6GJQsqaUBKTNV-1" source="Nr0vDeNPcTDGTxnFOgeZ-56" target="Nr0vDeNPcTDGTxnFOgeZ-62">
          <mxGeometry relative="1" as="geometry" />
        </mxCell>
        <mxCell id="Nr0vDeNPcTDGTxnFOgeZ-66" value="" style="edgeStyle=orthogonalEdgeStyle;rounded=0;orthogonalLoop=1;jettySize=auto;html=1;fontColor=#006600;" edge="1" parent="WIyWlLk6GJQsqaUBKTNV-1" source="Nr0vDeNPcTDGTxnFOgeZ-56" target="Nr0vDeNPcTDGTxnFOgeZ-65">
          <mxGeometry relative="1" as="geometry" />
        </mxCell>
        <mxCell id="Nr0vDeNPcTDGTxnFOgeZ-56" value="Applications API call: sent&lt;br&gt;Appointments API call: not sent&lt;br&gt;Announcements API: sent&amp;nbsp;&amp;nbsp;" style="rounded=1;whiteSpace=wrap;html=1;fontSize=12;glass=0;strokeWidth=1;shadow=0;" vertex="1" parent="WIyWlLk6GJQsqaUBKTNV-1">
          <mxGeometry x="1060" y="1010" width="220" height="140" as="geometry" />
        </mxCell>
        <mxCell id="Nr0vDeNPcTDGTxnFOgeZ-109" style="edgeStyle=orthogonalEdgeStyle;rounded=0;orthogonalLoop=1;jettySize=auto;html=1;entryX=0.5;entryY=0;entryDx=0;entryDy=0;fontSize=12;fontColor=#009900;" edge="1" parent="WIyWlLk6GJQsqaUBKTNV-1" source="Nr0vDeNPcTDGTxnFOgeZ-58" target="Nr0vDeNPcTDGTxnFOgeZ-108">
          <mxGeometry relative="1" as="geometry" />
        </mxCell>
        <mxCell id="Nr0vDeNPcTDGTxnFOgeZ-117" style="edgeStyle=orthogonalEdgeStyle;rounded=0;orthogonalLoop=1;jettySize=auto;html=1;entryX=0.5;entryY=1;entryDx=0;entryDy=0;fontSize=12;fontColor=#4D9900;" edge="1" parent="WIyWlLk6GJQsqaUBKTNV-1" source="Nr0vDeNPcTDGTxnFOgeZ-58" target="Nr0vDeNPcTDGTxnFOgeZ-116">
          <mxGeometry relative="1" as="geometry" />
        </mxCell>
        <mxCell id="Nr0vDeNPcTDGTxnFOgeZ-119" style="edgeStyle=orthogonalEdgeStyle;rounded=0;orthogonalLoop=1;jettySize=auto;html=1;entryX=0;entryY=0.5;entryDx=0;entryDy=0;fontSize=12;fontColor=#4D9900;" edge="1" parent="WIyWlLk6GJQsqaUBKTNV-1" source="Nr0vDeNPcTDGTxnFOgeZ-58" target="Nr0vDeNPcTDGTxnFOgeZ-118">
          <mxGeometry relative="1" as="geometry" />
        </mxCell>
        <mxCell id="Nr0vDeNPcTDGTxnFOgeZ-165" style="edgeStyle=orthogonalEdgeStyle;rounded=0;orthogonalLoop=1;jettySize=auto;html=1;entryX=-0.001;entryY=-0.125;entryDx=0;entryDy=0;entryPerimeter=0;fontSize=12;fontColor=#FF0000;" edge="1" parent="WIyWlLk6GJQsqaUBKTNV-1" source="Nr0vDeNPcTDGTxnFOgeZ-58" target="Nr0vDeNPcTDGTxnFOgeZ-161">
          <mxGeometry relative="1" as="geometry">
            <Array as="points">
              <mxPoint x="1790" y="1130" />
              <mxPoint x="2230" y="1130" />
              <mxPoint x="2230" y="1298" />
            </Array>
          </mxGeometry>
        </mxCell>
        <mxCell id="Nr0vDeNPcTDGTxnFOgeZ-58" value="Applications API call: sent&lt;br&gt;Appointments API call: sent&amp;nbsp;&amp;nbsp;&lt;br&gt;Announcements API call: sent" style="rounded=1;whiteSpace=wrap;html=1;fontSize=12;glass=0;strokeWidth=1;shadow=0;" vertex="1" parent="WIyWlLk6GJQsqaUBKTNV-1">
          <mxGeometry x="1680" y="850" width="220" height="130" as="geometry" />
        </mxCell>
        <mxCell id="Nr0vDeNPcTDGTxnFOgeZ-81" style="edgeStyle=orthogonalEdgeStyle;rounded=0;orthogonalLoop=1;jettySize=auto;html=1;fontColor=#009900;exitX=0.5;exitY=1;exitDx=0;exitDy=0;" edge="1" parent="WIyWlLk6GJQsqaUBKTNV-1" source="Nr0vDeNPcTDGTxnFOgeZ-132">
          <mxGeometry relative="1" as="geometry">
            <mxPoint x="839.9999999999995" y="1600" as="targetPoint" />
            <mxPoint x="1157.8999999999992" y="1360.8400000000001" as="sourcePoint" />
          </mxGeometry>
        </mxCell>
        <mxCell id="Nr0vDeNPcTDGTxnFOgeZ-71" style="edgeStyle=orthogonalEdgeStyle;rounded=0;orthogonalLoop=1;jettySize=auto;html=1;fontColor=#006600;" edge="1" parent="WIyWlLk6GJQsqaUBKTNV-1" source="Nr0vDeNPcTDGTxnFOgeZ-62">
          <mxGeometry relative="1" as="geometry">
            <mxPoint x="940" y="430" as="targetPoint" />
            <Array as="points">
              <mxPoint x="1170" y="625" />
              <mxPoint x="940" y="625" />
              <mxPoint x="940" y="460" />
            </Array>
          </mxGeometry>
        </mxCell>
        <mxCell id="Nr0vDeNPcTDGTxnFOgeZ-62" value="1. Set to do&lt;br&gt;Set to do: Documents API call: not sent&lt;br&gt;Set to do: Disaster API call: not sent&lt;br&gt;2. Set anything else to do" style="rounded=1;whiteSpace=wrap;html=1;fontSize=12;glass=0;strokeWidth=1;shadow=0;strokeColor=#009900;" vertex="1" parent="WIyWlLk6GJQsqaUBKTNV-1">
          <mxGeometry x="1060" y="790" width="220" height="140" as="geometry" />
        </mxCell>
        <mxCell id="Nr0vDeNPcTDGTxnFOgeZ-64" value="Applications API Failed" style="text;html=1;align=center;verticalAlign=middle;resizable=0;points=[];autosize=1;strokeColor=none;fillColor=none;fontColor=#FF3333;" vertex="1" parent="WIyWlLk6GJQsqaUBKTNV-1">
          <mxGeometry x="1020" y="960" width="140" height="20" as="geometry" />
        </mxCell>
        <mxCell id="Nr0vDeNPcTDGTxnFOgeZ-65" value="No impact" style="whiteSpace=wrap;html=1;rounded=1;glass=0;strokeWidth=1;shadow=0;" vertex="1" parent="WIyWlLk6GJQsqaUBKTNV-1">
          <mxGeometry x="730" y="1050" width="120" height="60" as="geometry" />
        </mxCell>
        <mxCell id="Nr0vDeNPcTDGTxnFOgeZ-68" value="Announcement API Failed" style="text;html=1;align=center;verticalAlign=middle;resizable=0;points=[];autosize=1;strokeColor=none;fillColor=none;fontColor=#FF3333;" vertex="1" parent="WIyWlLk6GJQsqaUBKTNV-1">
          <mxGeometry x="885" y="1090" width="150" height="20" as="geometry" />
        </mxCell>
        <mxCell id="Nr0vDeNPcTDGTxnFOgeZ-72" value="&lt;font color=&quot;#009900&quot;&gt;Applications API Passed&lt;/font&gt;" style="text;html=1;align=center;verticalAlign=middle;resizable=0;points=[];autosize=1;strokeColor=none;fillColor=none;fontColor=#FF3333;" vertex="1" parent="WIyWlLk6GJQsqaUBKTNV-1">
          <mxGeometry x="1005" y="1180" width="150" height="20" as="geometry" />
        </mxCell>
        <mxCell id="Nr0vDeNPcTDGTxnFOgeZ-73" value="Dashboard scenario 2" style="swimlane;" vertex="1" parent="WIyWlLk6GJQsqaUBKTNV-1">
          <mxGeometry x="640" y="1605" width="410" height="210" as="geometry" />
        </mxCell>
        <mxCell id="Nr0vDeNPcTDGTxnFOgeZ-74" value="&lt;font color=&quot;#000000&quot;&gt;Case details:&lt;/font&gt;&amp;nbsp;API error" style="text;html=1;align=center;verticalAlign=middle;resizable=0;points=[];autosize=1;strokeColor=none;fillColor=none;fontColor=#FF3333;" vertex="1" parent="Nr0vDeNPcTDGTxnFOgeZ-73">
          <mxGeometry x="-5" y="30" width="140" height="20" as="geometry" />
        </mxCell>
        <mxCell id="Nr0vDeNPcTDGTxnFOgeZ-75" value="&lt;font color=&quot;#000000&quot;&gt;Applications:&lt;/font&gt;&amp;nbsp;&lt;font color=&quot;#009900&quot;&gt;there could be unfinished applications with no case linked&lt;/font&gt;" style="text;html=1;align=center;verticalAlign=middle;resizable=0;points=[];autosize=1;strokeColor=none;fillColor=none;fontColor=#CC6600;" vertex="1" parent="Nr0vDeNPcTDGTxnFOgeZ-73">
          <mxGeometry y="60" width="390" height="20" as="geometry" />
        </mxCell>
        <mxCell id="Nr0vDeNPcTDGTxnFOgeZ-77" value="&lt;font color=&quot;#000000&quot;&gt;Things To Do:&lt;/font&gt;&amp;nbsp;&lt;font color=&quot;#009900&quot;&gt;We &quot;Link a case case&quot;, &quot;Start a new app&quot;, docs to do and etc.&lt;/font&gt;" style="text;html=1;align=center;verticalAlign=middle;resizable=0;points=[];autosize=1;strokeColor=none;fillColor=none;fontColor=#99004D;" vertex="1" parent="Nr0vDeNPcTDGTxnFOgeZ-73">
          <mxGeometry y="115" width="420" height="20" as="geometry" />
        </mxCell>
        <mxCell id="Nr0vDeNPcTDGTxnFOgeZ-78" value="&lt;font color=&quot;#000000&quot;&gt;What Else To Do:&lt;/font&gt; &lt;font color=&quot;#006600&quot;&gt;We only show 1 item: &quot;I want to see if I&#39;m eligible&quot;&lt;/font&gt;&amp;nbsp;" style="text;html=1;align=center;verticalAlign=middle;resizable=0;points=[];autosize=1;strokeColor=none;fillColor=none;fontColor=#99004D;" vertex="1" parent="Nr0vDeNPcTDGTxnFOgeZ-73">
          <mxGeometry y="150" width="380" height="20" as="geometry" />
        </mxCell>
        <mxCell id="Nr0vDeNPcTDGTxnFOgeZ-79" value="&lt;font color=&quot;#000000&quot;&gt;Help Section:&lt;/font&gt; &lt;font color=&quot;#006600&quot;&gt;Always show 1 item: &quot;Take me to Help Center&quot;&lt;/font&gt;" style="text;html=1;align=center;verticalAlign=middle;resizable=0;points=[];autosize=1;strokeColor=none;fillColor=none;fontColor=#000099;" vertex="1" parent="Nr0vDeNPcTDGTxnFOgeZ-73">
          <mxGeometry y="180" width="340" height="20" as="geometry" />
        </mxCell>
        <mxCell id="Nr0vDeNPcTDGTxnFOgeZ-76" value="&lt;font color=&quot;#000000&quot;&gt;Appointments:&lt;/font&gt; &lt;font color=&quot;#990000&quot;&gt;Unkown: We don&#39;t request appointments&lt;/font&gt;" style="text;html=1;align=center;verticalAlign=middle;resizable=0;points=[];autosize=1;strokeColor=none;fillColor=none;fontColor=#CC6600;" vertex="1" parent="Nr0vDeNPcTDGTxnFOgeZ-73">
          <mxGeometry y="85" width="310" height="20" as="geometry" />
        </mxCell>
        <mxCell id="Nr0vDeNPcTDGTxnFOgeZ-83" value="&lt;font&gt;no linked cases&lt;/font&gt;" style="text;html=1;align=center;verticalAlign=middle;resizable=0;points=[];autosize=1;strokeColor=none;fillColor=none;fontColor=#CC0000;" vertex="1" parent="WIyWlLk6GJQsqaUBKTNV-1">
          <mxGeometry x="1480" y="1180" width="100" height="20" as="geometry" />
        </mxCell>
        <mxCell id="Nr0vDeNPcTDGTxnFOgeZ-93" style="edgeStyle=orthogonalEdgeStyle;rounded=0;orthogonalLoop=1;jettySize=auto;html=1;fontColor=#CC0000;entryX=0.5;entryY=0;entryDx=0;entryDy=0;" edge="1" parent="WIyWlLk6GJQsqaUBKTNV-1" source="Nr0vDeNPcTDGTxnFOgeZ-84" target="Nr0vDeNPcTDGTxnFOgeZ-111">
          <mxGeometry relative="1" as="geometry">
            <mxPoint x="1450" y="1600" as="targetPoint" />
            <Array as="points">
              <mxPoint x="1790" y="1450" />
              <mxPoint x="1440" y="1450" />
            </Array>
          </mxGeometry>
        </mxCell>
        <mxCell id="Nr0vDeNPcTDGTxnFOgeZ-96" style="edgeStyle=orthogonalEdgeStyle;rounded=0;orthogonalLoop=1;jettySize=auto;html=1;entryX=0.5;entryY=0;entryDx=0;entryDy=0;fontSize=12;fontColor=#009900;" edge="1" parent="WIyWlLk6GJQsqaUBKTNV-1" source="Nr0vDeNPcTDGTxnFOgeZ-84" target="Nr0vDeNPcTDGTxnFOgeZ-95">
          <mxGeometry relative="1" as="geometry" />
        </mxCell>
        <mxCell id="Nr0vDeNPcTDGTxnFOgeZ-105" style="edgeStyle=orthogonalEdgeStyle;rounded=0;orthogonalLoop=1;jettySize=auto;html=1;fontSize=12;fontColor=#009900;entryX=0.5;entryY=0;entryDx=0;entryDy=0;" edge="1" parent="WIyWlLk6GJQsqaUBKTNV-1" source="Nr0vDeNPcTDGTxnFOgeZ-84" target="Nr0vDeNPcTDGTxnFOgeZ-114">
          <mxGeometry relative="1" as="geometry">
            <mxPoint x="2125" y="1490" as="targetPoint" />
          </mxGeometry>
        </mxCell>
        <mxCell id="Nr0vDeNPcTDGTxnFOgeZ-84" value="Applications API call: sent&lt;br&gt;Appointments API call: not sent&amp;nbsp;&amp;nbsp;&lt;br&gt;Announcements API call: sent" style="rounded=1;whiteSpace=wrap;html=1;fontSize=12;glass=0;strokeWidth=1;shadow=0;" vertex="1" parent="WIyWlLk6GJQsqaUBKTNV-1">
          <mxGeometry x="1680" y="1220" width="220" height="130" as="geometry" />
        </mxCell>
        <mxCell id="Nr0vDeNPcTDGTxnFOgeZ-85" value="&lt;font color=&quot;#009900&quot;&gt;Passed&lt;/font&gt;" style="text;html=1;align=center;verticalAlign=middle;resizable=0;points=[];autosize=1;strokeColor=none;fillColor=none;fontColor=#FF3333;" vertex="1" parent="WIyWlLk6GJQsqaUBKTNV-1">
          <mxGeometry x="1510" y="1050" width="60" height="20" as="geometry" />
        </mxCell>
        <mxCell id="Nr0vDeNPcTDGTxnFOgeZ-86" value="Dashboard scenario 3" style="swimlane;" vertex="1" parent="WIyWlLk6GJQsqaUBKTNV-1">
          <mxGeometry x="1235" y="1815" width="415" height="210" as="geometry" />
        </mxCell>
        <mxCell id="Nr0vDeNPcTDGTxnFOgeZ-87" value="&lt;font color=&quot;#000000&quot;&gt;Case details:&lt;/font&gt;&amp;nbsp;&lt;font color=&quot;#009900&quot;&gt;You have no cases&lt;/font&gt;" style="text;html=1;align=center;verticalAlign=middle;resizable=0;points=[];autosize=1;strokeColor=none;fillColor=none;fontColor=#FF3333;" vertex="1" parent="Nr0vDeNPcTDGTxnFOgeZ-86">
          <mxGeometry x="5" y="30" width="190" height="20" as="geometry" />
        </mxCell>
        <mxCell id="Nr0vDeNPcTDGTxnFOgeZ-88" value="&lt;font color=&quot;#000000&quot;&gt;Applications:&lt;/font&gt;&amp;nbsp;&lt;font color=&quot;#ff0000&quot;&gt;API error&lt;/font&gt;" style="text;html=1;align=center;verticalAlign=middle;resizable=0;points=[];autosize=1;strokeColor=none;fillColor=none;fontColor=#CC6600;" vertex="1" parent="Nr0vDeNPcTDGTxnFOgeZ-86">
          <mxGeometry x="5" y="60" width="130" height="20" as="geometry" />
        </mxCell>
        <mxCell id="Nr0vDeNPcTDGTxnFOgeZ-89" value="&lt;font color=&quot;#000000&quot;&gt;Appointments:&lt;/font&gt; &lt;font color=&quot;#990000&quot;&gt;Unkown: We don&#39;t request appointments&lt;/font&gt;" style="text;html=1;align=center;verticalAlign=middle;resizable=0;points=[];autosize=1;strokeColor=none;fillColor=none;fontColor=#CC6600;" vertex="1" parent="Nr0vDeNPcTDGTxnFOgeZ-86">
          <mxGeometry y="90" width="310" height="20" as="geometry" />
        </mxCell>
        <mxCell id="Nr0vDeNPcTDGTxnFOgeZ-90" value="&lt;font color=&quot;#000000&quot;&gt;Things To Do:&lt;/font&gt;&amp;nbsp;&lt;font color=&quot;#009900&quot;&gt;We &quot;Link a case case&quot;, &quot;Start a new app&quot;, docs to do and etc.&lt;/font&gt;" style="text;html=1;align=center;verticalAlign=middle;resizable=0;points=[];autosize=1;strokeColor=none;fillColor=none;fontColor=#99004D;" vertex="1" parent="Nr0vDeNPcTDGTxnFOgeZ-86">
          <mxGeometry x="-5" y="120" width="420" height="20" as="geometry" />
        </mxCell>
        <mxCell id="Nr0vDeNPcTDGTxnFOgeZ-91" value="&lt;font color=&quot;#000000&quot;&gt;What Else To Do:&lt;/font&gt; &lt;font color=&quot;#006600&quot;&gt;We only show 1 item: &quot;I want to see if I&#39;m eligible&quot;&lt;/font&gt;&amp;nbsp;" style="text;html=1;align=center;verticalAlign=middle;resizable=0;points=[];autosize=1;strokeColor=none;fillColor=none;fontColor=#99004D;" vertex="1" parent="Nr0vDeNPcTDGTxnFOgeZ-86">
          <mxGeometry y="150" width="380" height="20" as="geometry" />
        </mxCell>
        <mxCell id="Nr0vDeNPcTDGTxnFOgeZ-92" value="&lt;font color=&quot;#000000&quot;&gt;Help Section:&lt;/font&gt; &lt;font color=&quot;#006600&quot;&gt;Always show 1 item: &quot;Take me to Help Center&quot;&lt;/font&gt;" style="text;html=1;align=center;verticalAlign=middle;resizable=0;points=[];autosize=1;strokeColor=none;fillColor=none;fontColor=#000099;" vertex="1" parent="Nr0vDeNPcTDGTxnFOgeZ-86">
          <mxGeometry y="180" width="340" height="20" as="geometry" />
        </mxCell>
        <mxCell id="Nr0vDeNPcTDGTxnFOgeZ-94" value="Applications API Failed" style="text;html=1;align=center;verticalAlign=middle;resizable=0;points=[];autosize=1;strokeColor=none;fillColor=none;fontColor=#FF3333;" vertex="1" parent="WIyWlLk6GJQsqaUBKTNV-1">
          <mxGeometry x="1530" y="1420" width="140" height="20" as="geometry" />
        </mxCell>
        <mxCell id="Nr0vDeNPcTDGTxnFOgeZ-95" value="No impact" style="whiteSpace=wrap;html=1;rounded=1;glass=0;strokeWidth=1;shadow=0;" vertex="1" parent="WIyWlLk6GJQsqaUBKTNV-1">
          <mxGeometry x="1730" y="1540" width="120" height="60" as="geometry" />
        </mxCell>
        <mxCell id="Nr0vDeNPcTDGTxnFOgeZ-97" value="Announcement API Failed" style="text;html=1;align=center;verticalAlign=middle;resizable=0;points=[];autosize=1;strokeColor=none;fillColor=none;fontColor=#FF3333;" vertex="1" parent="WIyWlLk6GJQsqaUBKTNV-1">
          <mxGeometry x="1630" y="1490" width="150" height="20" as="geometry" />
        </mxCell>
        <mxCell id="Nr0vDeNPcTDGTxnFOgeZ-98" value="Dashboard scenario 4" style="swimlane;" vertex="1" parent="WIyWlLk6GJQsqaUBKTNV-1">
          <mxGeometry x="1920" y="1815" width="410" height="210" as="geometry" />
        </mxCell>
        <mxCell id="Nr0vDeNPcTDGTxnFOgeZ-100" value="&lt;font color=&quot;#000000&quot;&gt;Applications:&lt;/font&gt;&amp;nbsp;&lt;font color=&quot;#009900&quot;&gt;there could be unfinished applications with no case linked&lt;/font&gt;" style="text;html=1;align=center;verticalAlign=middle;resizable=0;points=[];autosize=1;strokeColor=none;fillColor=none;fontColor=#CC6600;" vertex="1" parent="Nr0vDeNPcTDGTxnFOgeZ-98">
          <mxGeometry y="60" width="390" height="20" as="geometry" />
        </mxCell>
        <mxCell id="Nr0vDeNPcTDGTxnFOgeZ-101" value="&lt;font color=&quot;#000000&quot;&gt;Things To Do:&lt;/font&gt;&amp;nbsp;&lt;font color=&quot;#009900&quot;&gt;We &quot;Link a case case&quot;, &quot;Start a new app&quot;, docs to do and etc.&lt;/font&gt;" style="text;html=1;align=center;verticalAlign=middle;resizable=0;points=[];autosize=1;strokeColor=none;fillColor=none;fontColor=#99004D;" vertex="1" parent="Nr0vDeNPcTDGTxnFOgeZ-98">
          <mxGeometry x="-5" y="115" width="420" height="20" as="geometry" />
        </mxCell>
        <mxCell id="Nr0vDeNPcTDGTxnFOgeZ-102" value="&lt;font color=&quot;#000000&quot;&gt;What Else To Do:&lt;/font&gt; &lt;font color=&quot;#006600&quot;&gt;We only show 1 item: &quot;I want to see if I&#39;m eligible&quot;&lt;/font&gt;&amp;nbsp;" style="text;html=1;align=center;verticalAlign=middle;resizable=0;points=[];autosize=1;strokeColor=none;fillColor=none;fontColor=#99004D;" vertex="1" parent="Nr0vDeNPcTDGTxnFOgeZ-98">
          <mxGeometry y="150" width="380" height="20" as="geometry" />
        </mxCell>
        <mxCell id="Nr0vDeNPcTDGTxnFOgeZ-103" value="&lt;font color=&quot;#000000&quot;&gt;Help Section:&lt;/font&gt; &lt;font color=&quot;#006600&quot;&gt;Always show 1 item: &quot;Take me to Help Center&quot;&lt;/font&gt;" style="text;html=1;align=center;verticalAlign=middle;resizable=0;points=[];autosize=1;strokeColor=none;fillColor=none;fontColor=#000099;" vertex="1" parent="Nr0vDeNPcTDGTxnFOgeZ-98">
          <mxGeometry y="180" width="340" height="20" as="geometry" />
        </mxCell>
        <mxCell id="Nr0vDeNPcTDGTxnFOgeZ-104" value="&lt;font color=&quot;#000000&quot;&gt;Appointments:&lt;/font&gt; &lt;font color=&quot;#990000&quot;&gt;Unkown: We don&#39;t request appointments&lt;/font&gt;" style="text;html=1;align=center;verticalAlign=middle;resizable=0;points=[];autosize=1;strokeColor=none;fillColor=none;fontColor=#CC6600;" vertex="1" parent="Nr0vDeNPcTDGTxnFOgeZ-98">
          <mxGeometry y="85" width="310" height="20" as="geometry" />
        </mxCell>
        <mxCell id="Nr0vDeNPcTDGTxnFOgeZ-107" value="&lt;font color=&quot;#000000&quot;&gt;Case details:&lt;/font&gt;&amp;nbsp;&lt;font color=&quot;#009900&quot;&gt;You have no cases&lt;/font&gt;" style="text;html=1;align=center;verticalAlign=middle;resizable=0;points=[];autosize=1;strokeColor=none;fillColor=none;fontColor=#FF3333;" vertex="1" parent="Nr0vDeNPcTDGTxnFOgeZ-98">
          <mxGeometry y="35" width="190" height="20" as="geometry" />
        </mxCell>
        <mxCell id="Nr0vDeNPcTDGTxnFOgeZ-106" value="&lt;font color=&quot;#009900&quot;&gt;Applications API Passed&lt;/font&gt;" style="text;html=1;align=center;verticalAlign=middle;resizable=0;points=[];autosize=1;strokeColor=none;fillColor=none;fontColor=#FF3333;" vertex="1" parent="WIyWlLk6GJQsqaUBKTNV-1">
          <mxGeometry x="1930" y="1300" width="150" height="20" as="geometry" />
        </mxCell>
        <mxCell id="Nr0vDeNPcTDGTxnFOgeZ-108" value="No impact" style="whiteSpace=wrap;html=1;rounded=1;glass=0;strokeWidth=1;shadow=0;" vertex="1" parent="WIyWlLk6GJQsqaUBKTNV-1">
          <mxGeometry x="1630" y="1100" width="120" height="50" as="geometry" />
        </mxCell>
        <mxCell id="Nr0vDeNPcTDGTxnFOgeZ-110" value="Announcement API Failed" style="text;html=1;align=center;verticalAlign=middle;resizable=0;points=[];autosize=1;strokeColor=none;fillColor=none;fontColor=#FF3333;" vertex="1" parent="WIyWlLk6GJQsqaUBKTNV-1">
          <mxGeometry x="1640" y="1010" width="150" height="20" as="geometry" />
        </mxCell>
        <mxCell id="Nr0vDeNPcTDGTxnFOgeZ-113" value="" style="edgeStyle=orthogonalEdgeStyle;rounded=0;orthogonalLoop=1;jettySize=auto;html=1;fontSize=12;fontColor=#4D9900;entryX=0.5;entryY=0;entryDx=0;entryDy=0;" edge="1" parent="WIyWlLk6GJQsqaUBKTNV-1" source="Nr0vDeNPcTDGTxnFOgeZ-111" target="Nr0vDeNPcTDGTxnFOgeZ-86">
          <mxGeometry relative="1" as="geometry" />
        </mxCell>
        <mxCell id="Nr0vDeNPcTDGTxnFOgeZ-111" value="1. Set to do&lt;br&gt;Set to do: Documents API call: sent&lt;br&gt;Set to do: Disaster API call: sent&lt;br&gt;2. Set anything else to do" style="rounded=1;whiteSpace=wrap;html=1;fontSize=12;glass=0;strokeWidth=1;shadow=0;" vertex="1" parent="WIyWlLk6GJQsqaUBKTNV-1">
          <mxGeometry x="1330" y="1600" width="220" height="140" as="geometry" />
        </mxCell>
        <mxCell id="Nr0vDeNPcTDGTxnFOgeZ-115" value="" style="edgeStyle=orthogonalEdgeStyle;rounded=0;orthogonalLoop=1;jettySize=auto;html=1;fontSize=12;fontColor=#4D9900;entryX=0.5;entryY=0;entryDx=0;entryDy=0;" edge="1" parent="WIyWlLk6GJQsqaUBKTNV-1" source="Nr0vDeNPcTDGTxnFOgeZ-114" target="Nr0vDeNPcTDGTxnFOgeZ-98">
          <mxGeometry relative="1" as="geometry" />
        </mxCell>
        <mxCell id="Nr0vDeNPcTDGTxnFOgeZ-114" value="1. Set to do&lt;br&gt;Set to do: Documents API call: sent&lt;br&gt;Set to do: Disaster API call: sent&lt;br&gt;2. Set anything else to do" style="rounded=1;whiteSpace=wrap;html=1;fontSize=12;glass=0;strokeWidth=1;shadow=0;" vertex="1" parent="WIyWlLk6GJQsqaUBKTNV-1">
          <mxGeometry x="2015" y="1600" width="220" height="140" as="geometry" />
        </mxCell>
        <mxCell id="Nr0vDeNPcTDGTxnFOgeZ-131" style="edgeStyle=orthogonalEdgeStyle;rounded=0;orthogonalLoop=1;jettySize=auto;html=1;fontSize=12;fontColor=#4D9900;entryX=0.587;entryY=1.333;entryDx=0;entryDy=0;entryPerimeter=0;" edge="1" parent="WIyWlLk6GJQsqaUBKTNV-1" source="Nr0vDeNPcTDGTxnFOgeZ-116" target="Nr0vDeNPcTDGTxnFOgeZ-128">
          <mxGeometry relative="1" as="geometry">
            <mxPoint x="1790" y="440" as="targetPoint" />
          </mxGeometry>
        </mxCell>
        <mxCell id="Nr0vDeNPcTDGTxnFOgeZ-116" value="1. Set to do&lt;br&gt;Set to do: Documents API call: sent&lt;br&gt;Set to do: Disaster API call: sent&lt;br&gt;2. Set anything else to do" style="rounded=1;whiteSpace=wrap;html=1;fontSize=12;glass=0;strokeWidth=1;shadow=0;" vertex="1" parent="WIyWlLk6GJQsqaUBKTNV-1">
          <mxGeometry x="1680" y="580" width="220" height="140" as="geometry" />
        </mxCell>
        <mxCell id="Nr0vDeNPcTDGTxnFOgeZ-154" style="edgeStyle=orthogonalEdgeStyle;rounded=0;orthogonalLoop=1;jettySize=auto;html=1;entryX=0.015;entryY=-0.25;entryDx=0;entryDy=0;entryPerimeter=0;fontSize=12;fontColor=#CC0000;" edge="1" parent="WIyWlLk6GJQsqaUBKTNV-1" source="Nr0vDeNPcTDGTxnFOgeZ-118" target="Nr0vDeNPcTDGTxnFOgeZ-153">
          <mxGeometry relative="1" as="geometry" />
        </mxCell>
        <mxCell id="Nr0vDeNPcTDGTxnFOgeZ-118" value="1. Set to do&lt;br&gt;Set to do: Documents API call: sent&lt;br&gt;Set to do: Disaster API call: sent&lt;br&gt;2. Set anything else to do" style="rounded=1;whiteSpace=wrap;html=1;fontSize=12;glass=0;strokeWidth=1;shadow=0;" vertex="1" parent="WIyWlLk6GJQsqaUBKTNV-1">
          <mxGeometry x="2170" y="845" width="220" height="140" as="geometry" />
        </mxCell>
        <mxCell id="Nr0vDeNPcTDGTxnFOgeZ-120" value="Applications API Failed" style="text;html=1;align=center;verticalAlign=middle;resizable=0;points=[];autosize=1;strokeColor=none;fillColor=none;fontColor=#FF3333;" vertex="1" parent="WIyWlLk6GJQsqaUBKTNV-1">
          <mxGeometry x="1635" y="750" width="140" height="20" as="geometry" />
        </mxCell>
        <mxCell id="Nr0vDeNPcTDGTxnFOgeZ-121" value="&lt;font color=&quot;#009900&quot;&gt;Applications API Passed&lt;/font&gt;" style="text;html=1;align=center;verticalAlign=middle;resizable=0;points=[];autosize=1;strokeColor=none;fillColor=none;fontColor=#FF3333;" vertex="1" parent="WIyWlLk6GJQsqaUBKTNV-1">
          <mxGeometry x="1960" y="850" width="150" height="20" as="geometry" />
        </mxCell>
        <mxCell id="Nr0vDeNPcTDGTxnFOgeZ-122" value="Appointments API Failed" style="text;html=1;align=center;verticalAlign=middle;resizable=0;points=[];autosize=1;strokeColor=none;fillColor=none;fontColor=#FF3333;" vertex="1" parent="WIyWlLk6GJQsqaUBKTNV-1">
          <mxGeometry x="1960" y="870" width="150" height="20" as="geometry" />
        </mxCell>
        <mxCell id="Nr0vDeNPcTDGTxnFOgeZ-123" value="&lt;font color=&quot;#009900&quot;&gt;Appointments API Passed&lt;/font&gt;" style="text;html=1;align=center;verticalAlign=middle;resizable=0;points=[];autosize=1;strokeColor=none;fillColor=none;fontColor=#FF3333;" vertex="1" parent="WIyWlLk6GJQsqaUBKTNV-1">
          <mxGeometry x="1630" y="770" width="150" height="20" as="geometry" />
        </mxCell>
        <mxCell id="Nr0vDeNPcTDGTxnFOgeZ-124" value="Dashboard scenario 5" style="swimlane;" vertex="1" parent="WIyWlLk6GJQsqaUBKTNV-1">
          <mxGeometry x="1590" y="220" width="415" height="210" as="geometry" />
        </mxCell>
        <mxCell id="Nr0vDeNPcTDGTxnFOgeZ-125" value="&lt;font color=&quot;#000000&quot;&gt;Applications:&lt;/font&gt;&amp;nbsp;&lt;font color=&quot;#cc0000&quot;&gt;API Error&lt;/font&gt;" style="text;html=1;align=center;verticalAlign=middle;resizable=0;points=[];autosize=1;strokeColor=none;fillColor=none;fontColor=#CC6600;" vertex="1" parent="Nr0vDeNPcTDGTxnFOgeZ-124">
          <mxGeometry y="60" width="140" height="20" as="geometry" />
        </mxCell>
        <mxCell id="Nr0vDeNPcTDGTxnFOgeZ-127" value="&lt;font color=&quot;#000000&quot;&gt;What Else To Do:&lt;/font&gt; &lt;font color=&quot;#006600&quot;&gt;We only show 1 item: &quot;I want to see if I&#39;m eligible&quot;&lt;/font&gt;&amp;nbsp;" style="text;html=1;align=center;verticalAlign=middle;resizable=0;points=[];autosize=1;strokeColor=none;fillColor=none;fontColor=#99004D;" vertex="1" parent="Nr0vDeNPcTDGTxnFOgeZ-124">
          <mxGeometry y="150" width="380" height="20" as="geometry" />
        </mxCell>
        <mxCell id="Nr0vDeNPcTDGTxnFOgeZ-128" value="&lt;font color=&quot;#000000&quot;&gt;Help Section:&lt;/font&gt; &lt;font color=&quot;#006600&quot;&gt;Always show 1 item: &quot;Take me to Help Center&quot;&lt;/font&gt;" style="text;html=1;align=center;verticalAlign=middle;resizable=0;points=[];autosize=1;strokeColor=none;fillColor=none;fontColor=#000099;" vertex="1" parent="Nr0vDeNPcTDGTxnFOgeZ-124">
          <mxGeometry y="180" width="340" height="20" as="geometry" />
        </mxCell>
        <mxCell id="Nr0vDeNPcTDGTxnFOgeZ-129" value="&lt;font color=&quot;#000000&quot;&gt;Appointments:&lt;/font&gt; &lt;font color=&quot;#990000&quot;&gt;Unkown: We don&#39;t request appointments&lt;/font&gt;" style="text;html=1;align=center;verticalAlign=middle;resizable=0;points=[];autosize=1;strokeColor=none;fillColor=none;fontColor=#CC6600;" vertex="1" parent="Nr0vDeNPcTDGTxnFOgeZ-124">
          <mxGeometry y="85" width="310" height="20" as="geometry" />
        </mxCell>
        <mxCell id="Nr0vDeNPcTDGTxnFOgeZ-130" value="&lt;font color=&quot;#000000&quot;&gt;Case details:&lt;/font&gt;&amp;nbsp;&lt;font color=&quot;#009900&quot;&gt;We display cases&lt;/font&gt;" style="text;html=1;align=center;verticalAlign=middle;resizable=0;points=[];autosize=1;strokeColor=none;fillColor=none;fontColor=#FF3333;" vertex="1" parent="Nr0vDeNPcTDGTxnFOgeZ-124">
          <mxGeometry x="5" y="35" width="180" height="20" as="geometry" />
        </mxCell>
        <mxCell id="Nr0vDeNPcTDGTxnFOgeZ-146" value="&lt;font color=&quot;#000000&quot;&gt;Things To Do:&lt;/font&gt; &lt;font color=&quot;#009900&quot;&gt;We &quot;Link a case case&quot;, &quot;Start a new app&quot;, docs to do and etc.&lt;/font&gt;" style="text;html=1;align=center;verticalAlign=middle;resizable=0;points=[];autosize=1;strokeColor=none;fillColor=none;fontColor=#99004D;" vertex="1" parent="Nr0vDeNPcTDGTxnFOgeZ-124">
          <mxGeometry x="-5" y="120" width="420" height="20" as="geometry" />
        </mxCell>
        <mxCell id="Nr0vDeNPcTDGTxnFOgeZ-143" style="edgeStyle=orthogonalEdgeStyle;rounded=0;orthogonalLoop=1;jettySize=auto;html=1;fontSize=12;fontColor=#CC0000;" edge="1" parent="WIyWlLk6GJQsqaUBKTNV-1" source="Nr0vDeNPcTDGTxnFOgeZ-132">
          <mxGeometry relative="1" as="geometry">
            <mxPoint x="540" y="1710" as="targetPoint" />
          </mxGeometry>
        </mxCell>
        <mxCell id="Nr0vDeNPcTDGTxnFOgeZ-132" value="1. Set to do&lt;br&gt;Set to do: Documents API call: sent&lt;br&gt;Set to do: Disaster API call: sent&lt;br&gt;2. Set anything else to do" style="rounded=1;whiteSpace=wrap;html=1;fontSize=12;glass=0;strokeWidth=1;shadow=0;strokeColor=#009900;" vertex="1" parent="WIyWlLk6GJQsqaUBKTNV-1">
          <mxGeometry x="1060" y="1220" width="220" height="140" as="geometry" />
        </mxCell>
        <mxCell id="Nr0vDeNPcTDGTxnFOgeZ-135" value="Documents API Failed" style="text;html=1;align=center;verticalAlign=middle;resizable=0;points=[];autosize=1;strokeColor=none;fillColor=none;fontColor=#FF3333;" vertex="1" parent="WIyWlLk6GJQsqaUBKTNV-1">
          <mxGeometry x="895" y="1260" width="130" height="20" as="geometry" />
        </mxCell>
        <mxCell id="Nr0vDeNPcTDGTxnFOgeZ-136" value="Disaster API Failed" style="text;html=1;align=center;verticalAlign=middle;resizable=0;points=[];autosize=1;strokeColor=none;fillColor=none;fontColor=#FF3333;" vertex="1" parent="WIyWlLk6GJQsqaUBKTNV-1">
          <mxGeometry x="765" y="1260" width="120" height="20" as="geometry" />
        </mxCell>
        <mxCell id="Nr0vDeNPcTDGTxnFOgeZ-137" value="&lt;font color=&quot;#000000&quot;&gt;add&amp;nbsp;&lt;/font&gt;API error" style="text;html=1;align=center;verticalAlign=middle;resizable=0;points=[];autosize=1;strokeColor=none;fillColor=none;fontColor=#FF3333;" vertex="1" parent="WIyWlLk6GJQsqaUBKTNV-1">
          <mxGeometry x="500" y="1720" width="90" height="20" as="geometry" />
        </mxCell>
        <mxCell id="Nr0vDeNPcTDGTxnFOgeZ-139" value="" style="endArrow=classic;html=1;rounded=0;fontSize=12;fontColor=#CC0000;entryX=0.034;entryY=0.5;entryDx=0;entryDy=0;entryPerimeter=0;" edge="1" parent="WIyWlLk6GJQsqaUBKTNV-1" source="Nr0vDeNPcTDGTxnFOgeZ-137" target="Nr0vDeNPcTDGTxnFOgeZ-77">
          <mxGeometry width="50" height="50" relative="1" as="geometry">
            <mxPoint x="1530" y="700" as="sourcePoint" />
            <mxPoint x="620" y="1730" as="targetPoint" />
          </mxGeometry>
        </mxCell>
        <mxCell id="Nr0vDeNPcTDGTxnFOgeZ-140" value="We&amp;nbsp; request documents and disaster information&lt;br&gt;based on county code we determine &lt;br&gt;from unfinished application information or case details" style="text;html=1;align=center;verticalAlign=middle;resizable=0;points=[];autosize=1;strokeColor=none;fillColor=none;fontSize=12;fontColor=#CC0000;" vertex="1" parent="WIyWlLk6GJQsqaUBKTNV-1">
          <mxGeometry x="720" y="1300" width="300" height="50" as="geometry" />
        </mxCell>
        <mxCell id="Nr0vDeNPcTDGTxnFOgeZ-144" value="Do the same for all scenarios" style="text;html=1;align=center;verticalAlign=middle;resizable=0;points=[];autosize=1;strokeColor=none;fillColor=none;fontSize=12;fontColor=#CC0000;" vertex="1" parent="WIyWlLk6GJQsqaUBKTNV-1">
          <mxGeometry x="460" y="1740" width="170" height="20" as="geometry" />
        </mxCell>
        <mxCell id="Nr0vDeNPcTDGTxnFOgeZ-147" value="Dashboard scenario 6" style="swimlane;" vertex="1" parent="WIyWlLk6GJQsqaUBKTNV-1">
          <mxGeometry x="2530" y="800" width="415" height="210" as="geometry" />
        </mxCell>
        <mxCell id="Nr0vDeNPcTDGTxnFOgeZ-148" value="&lt;font color=&quot;#000000&quot;&gt;Applications:&lt;/font&gt;&amp;nbsp;&lt;font color=&quot;#009900&quot;&gt;We display applications&lt;/font&gt;" style="text;html=1;align=center;verticalAlign=middle;resizable=0;points=[];autosize=1;strokeColor=none;fillColor=none;fontColor=#CC6600;" vertex="1" parent="Nr0vDeNPcTDGTxnFOgeZ-147">
          <mxGeometry x="5" y="60" width="210" height="20" as="geometry" />
        </mxCell>
        <mxCell id="Nr0vDeNPcTDGTxnFOgeZ-149" value="&lt;font color=&quot;#000000&quot;&gt;What Else To Do:&lt;/font&gt; &lt;font color=&quot;#006600&quot;&gt;We only show 1 item: &quot;I want to see if I&#39;m eligible&quot;&lt;/font&gt;&amp;nbsp;" style="text;html=1;align=center;verticalAlign=middle;resizable=0;points=[];autosize=1;strokeColor=none;fillColor=none;fontColor=#99004D;" vertex="1" parent="Nr0vDeNPcTDGTxnFOgeZ-147">
          <mxGeometry y="150" width="380" height="20" as="geometry" />
        </mxCell>
        <mxCell id="Nr0vDeNPcTDGTxnFOgeZ-150" value="&lt;font color=&quot;#000000&quot;&gt;Help Section:&lt;/font&gt; &lt;font color=&quot;#006600&quot;&gt;Always show 1 item: &quot;Take me to Help Center&quot;&lt;/font&gt;" style="text;html=1;align=center;verticalAlign=middle;resizable=0;points=[];autosize=1;strokeColor=none;fillColor=none;fontColor=#000099;" vertex="1" parent="Nr0vDeNPcTDGTxnFOgeZ-147">
          <mxGeometry y="180" width="340" height="20" as="geometry" />
        </mxCell>
        <mxCell id="Nr0vDeNPcTDGTxnFOgeZ-151" value="&lt;font color=&quot;#000000&quot;&gt;Appointments:&lt;/font&gt;&amp;nbsp;&lt;font color=&quot;#ff0000&quot;&gt;API Error&lt;/font&gt;" style="text;html=1;align=center;verticalAlign=middle;resizable=0;points=[];autosize=1;strokeColor=none;fillColor=none;fontColor=#CC6600;" vertex="1" parent="Nr0vDeNPcTDGTxnFOgeZ-147">
          <mxGeometry x="10" y="90" width="140" height="20" as="geometry" />
        </mxCell>
        <mxCell id="Nr0vDeNPcTDGTxnFOgeZ-152" value="&lt;font color=&quot;#000000&quot;&gt;Case details:&lt;/font&gt;&amp;nbsp;&lt;font color=&quot;#009900&quot;&gt;We display cases&lt;/font&gt;" style="text;html=1;align=center;verticalAlign=middle;resizable=0;points=[];autosize=1;strokeColor=none;fillColor=none;fontColor=#FF3333;" vertex="1" parent="Nr0vDeNPcTDGTxnFOgeZ-147">
          <mxGeometry x="5" y="35" width="180" height="20" as="geometry" />
        </mxCell>
        <mxCell id="Nr0vDeNPcTDGTxnFOgeZ-153" value="&lt;font color=&quot;#000000&quot;&gt;Things To Do:&lt;/font&gt; &lt;font color=&quot;#009900&quot;&gt;We &quot;Link a case case&quot;, &quot;Start a new app&quot;, docs to do and etc.&lt;/font&gt;" style="text;html=1;align=center;verticalAlign=middle;resizable=0;points=[];autosize=1;strokeColor=none;fillColor=none;fontColor=#99004D;" vertex="1" parent="Nr0vDeNPcTDGTxnFOgeZ-147">
          <mxGeometry x="-5" y="120" width="420" height="20" as="geometry" />
        </mxCell>
        <mxCell id="Nr0vDeNPcTDGTxnFOgeZ-155" value="Dashboard scenario 7" style="swimlane;" vertex="1" parent="WIyWlLk6GJQsqaUBKTNV-1">
          <mxGeometry x="2510" y="1180" width="415" height="210" as="geometry" />
        </mxCell>
        <mxCell id="Nr0vDeNPcTDGTxnFOgeZ-156" value="&lt;font color=&quot;#000000&quot;&gt;Applications:&lt;/font&gt;&amp;nbsp;&lt;font color=&quot;#009900&quot;&gt;We display applications&lt;/font&gt;" style="text;html=1;align=center;verticalAlign=middle;resizable=0;points=[];autosize=1;strokeColor=none;fillColor=none;fontColor=#CC6600;" vertex="1" parent="Nr0vDeNPcTDGTxnFOgeZ-155">
          <mxGeometry x="5" y="60" width="210" height="20" as="geometry" />
        </mxCell>
        <mxCell id="Nr0vDeNPcTDGTxnFOgeZ-157" value="&lt;font color=&quot;#000000&quot;&gt;What Else To Do:&lt;/font&gt; &lt;font color=&quot;#006600&quot;&gt;We only show 1 item: &quot;I want to see if I&#39;m eligible&quot;&lt;/font&gt;&amp;nbsp;" style="text;html=1;align=center;verticalAlign=middle;resizable=0;points=[];autosize=1;strokeColor=none;fillColor=none;fontColor=#99004D;" vertex="1" parent="Nr0vDeNPcTDGTxnFOgeZ-155">
          <mxGeometry y="150" width="380" height="20" as="geometry" />
        </mxCell>
        <mxCell id="Nr0vDeNPcTDGTxnFOgeZ-158" value="&lt;font color=&quot;#000000&quot;&gt;Help Section:&lt;/font&gt; &lt;font color=&quot;#006600&quot;&gt;Always show 1 item: &quot;Take me to Help Center&quot;&lt;/font&gt;" style="text;html=1;align=center;verticalAlign=middle;resizable=0;points=[];autosize=1;strokeColor=none;fillColor=none;fontColor=#000099;" vertex="1" parent="Nr0vDeNPcTDGTxnFOgeZ-155">
          <mxGeometry y="180" width="340" height="20" as="geometry" />
        </mxCell>
        <mxCell id="Nr0vDeNPcTDGTxnFOgeZ-159" value="&lt;font color=&quot;#000000&quot;&gt;Appointments:&lt;/font&gt;&amp;nbsp;&lt;font color=&quot;#ff0000&quot;&gt;We show appointments&lt;/font&gt;" style="text;html=1;align=center;verticalAlign=middle;resizable=0;points=[];autosize=1;strokeColor=none;fillColor=none;fontColor=#CC6600;" vertex="1" parent="Nr0vDeNPcTDGTxnFOgeZ-155">
          <mxGeometry x="10" y="90" width="220" height="20" as="geometry" />
        </mxCell>
        <mxCell id="Nr0vDeNPcTDGTxnFOgeZ-160" value="&lt;font color=&quot;#000000&quot;&gt;Case details:&lt;/font&gt;&amp;nbsp;&lt;font color=&quot;#009900&quot;&gt;We display cases&lt;/font&gt;" style="text;html=1;align=center;verticalAlign=middle;resizable=0;points=[];autosize=1;strokeColor=none;fillColor=none;fontColor=#FF3333;" vertex="1" parent="Nr0vDeNPcTDGTxnFOgeZ-155">
          <mxGeometry x="5" y="35" width="180" height="20" as="geometry" />
        </mxCell>
        <mxCell id="Nr0vDeNPcTDGTxnFOgeZ-161" value="&lt;font color=&quot;#000000&quot;&gt;Things To Do:&lt;/font&gt; &lt;font color=&quot;#009900&quot;&gt;We &quot;Link a case case&quot;, &quot;Start a new app&quot;, docs to do and etc.&lt;/font&gt;" style="text;html=1;align=center;verticalAlign=middle;resizable=0;points=[];autosize=1;strokeColor=none;fillColor=none;fontColor=#99004D;" vertex="1" parent="Nr0vDeNPcTDGTxnFOgeZ-155">
          <mxGeometry x="-5" y="120" width="420" height="20" as="geometry" />
        </mxCell>
        <mxCell id="Nr0vDeNPcTDGTxnFOgeZ-163" value="&lt;font color=&quot;#009900&quot;&gt;Applications API Passed&lt;/font&gt;" style="text;html=1;align=center;verticalAlign=middle;resizable=0;points=[];autosize=1;strokeColor=none;fillColor=none;fontColor=#FF3333;" vertex="1" parent="WIyWlLk6GJQsqaUBKTNV-1">
          <mxGeometry x="1980" y="1080" width="150" height="20" as="geometry" />
        </mxCell>
        <mxCell id="Nr0vDeNPcTDGTxnFOgeZ-164" value="&lt;font color=&quot;#009900&quot;&gt;Appointments API Passed&lt;/font&gt;" style="text;html=1;align=center;verticalAlign=middle;resizable=0;points=[];autosize=1;strokeColor=none;fillColor=none;fontColor=#FF3333;" vertex="1" parent="WIyWlLk6GJQsqaUBKTNV-1">
          <mxGeometry x="1980" y="1100" width="150" height="20" as="geometry" />
        </mxCell>
      </root>
    </mxGraphModel>
  </diagram>
</mxfile>
